<svg xmlns="http://www.w3.org/2000/svg" fill="none" viewBox="0 0 36 36">
  <rect width="36" height="36" fill="#1F292F" rx="18"/>
  <g fill="#fff" clip-path="url(#a)" opacity=".85">
    <path d="m22.29 14.06-.27 1 .66.17.27-.99.66.18-.27.99.66.18.27-1 .66.18-.27 1 .67.17.26-1 1 .27-.45 1.66-17.19-4.6.45-1.66 12.89 3.45ZM8.78 12.92 12.74 14l-.17.66-3.31-.89a.69.69 0 0 1-.48-.84Zm6.64 5.32a.8.8 0 0 1-.54-1.06l.44-1.09 2.43.65.04.02c-.38.49-.86.72-1.44.68l-.04.68c.83.06 1.56-.3 2.08-1.03.29.26.47.6.51.98l.14 1.14-3.62-.97Zm9.14 8.34a.3.3 0 0 1-.28.06l-3.79-1.01-.91-7.64a2.24 2.24 0 0 0-1.65-1.9l-4.7-1.27.17-.66 6.94 1.86-.17.66.66.18.18-.66L25 17.27a2.25 2.25 0 0 0-1.34 2.4l1 6.64a.3.3 0 0 1-.1.27Z"/>
    <path d="m22.93 24.86.67.18-.18.66-.66-.18.17-.66ZM10.08 9.38l.66.17-.18.66-.66-.17.18-.66ZM25.29 13.45l.66.18-.18.66-.66-.18.18-.66Z"/>
  </g>
  <defs>
    <clipPath id="a">
      <path fill="#fff" d="M0 0h21.9v21.9H0z" transform="rotate(15 -12.82 38.7)"/>
    </clipPath>
  </defs>
</svg>
